<?xml version="1.0" standalone="no"?>
 <!DOCTYPE svg PUBLIC "-//W3C//DTD SVG 1.1//EN" 
 "http://www.w3.org/Graphics/SVG/1.1/DTD/svg11.dtd"> 
<svg
  xmlns:svg="http://www.w3.org/2000/svg"
  xmlns="http://www.w3.org/2000/svg"
  xmlns:xlink="http://www.w3.org/1999/xlink"
  version="1.1"
  width="10.228580cm" height="6.433820cm" viewBox="0 0 102285800 64338200">
<title>IO/65 Dimensions</title>
  <desc>IO/65 Dimensions</desc>
<g style="fill:#000000; fill-opacity:1.000000;stroke:#000000; stroke-opacity:1.000000;
stroke-linecap:round; stroke-linejoin:round;"
 transform="translate(0 0) scale(1 1)">
</g>
<g style="fill:#000000; fill-opacity:0.0; 
stroke:#000000; stroke-width:0.000000; stroke-opacity:1; 
stroke-linecap:round; stroke-linejoin:round;">
</g>
<g style="fill:#C2C2C2; fill-opacity:0.0; 
stroke:#C2C2C2; stroke-width:0.000000; stroke-opacity:1; 
stroke-linecap:round; stroke-linejoin:round;">
</g>
<g style="fill:#C2C2C2; fill-opacity:1.0; 
stroke:#C2C2C2; stroke-width:1.000000; stroke-opacity:1; 
stroke-linecap:round; stroke-linejoin:round;">
<circle cx="2875000.000000" cy="58980000.000000" r="50000.000000" /> 
</g>
<g style="fill:#C2C2C2; fill-opacity:0.0; 
stroke:#C2C2C2; stroke-width:150000.000000; stroke-opacity:1; 
stroke-linecap:round; stroke-linejoin:round;">
<path d="M85675000.000000 9980000.000000 A13000000.000000 13000000.000000 0.0 0 0 85675000.000000 19980000.000000" />
</g>
<g style="fill:#C2C2C2; fill-opacity:0.0; 
stroke:#C2C2C2; stroke-width:100000.000000; stroke-opacity:1; 
stroke-linecap:round; stroke-linejoin:round;">
<path d="M2375000 58980000
L2375000 51360000
" />
<path d="M83375000 51360000
L85675000 51360000
" />
<path d="M84675000.000000 51360000.000000 A1000000.000000 1000000.000000 0.0 0 0 85675000.000000 50360000.000000" />
<path d="M2375000 58480000
L2875000 58980000
" />
<path d="M83375000 58980000
L83375000 51360000
" />
<path d="M2375000 58980000
L83375000 58980000
" />
<path d="M75000 51360000
L75000 4980000
" />
<path d="M75000 51360000
L2375000 51360000
" />
<path d="M85675000.000000 7980000.000000 A3000000.000000 3000000.000000 0.0 0 0 82675000.000000 4980000.000000" />
<path d="M3075000.000000 4980000.000000 A3000001.000000 3000001.000000 0.0 0 0 75000.000000 7980000.000000" />
<path d="M74999.988894 19979999.995377 A13010822.000000 13010822.000000 0.0 0 0 74999.988894 9980000.004623" />
<path d="M75000.000001 50360000.000000 A999999.000000 999999.000000 0.0 0 0 1075000.000000 51360000.000000" />
<path d="M85675000 4980000
L85675000 51360000
" />
<path d="M75000 4980000
L85675000 4980000
" />
<path d="M83375000 58480000
L82875000 58980000
" />
<g transform="rotate(-90.000000 49375000.000000 18480000.000000)">
<text x="49375000.000000" y="18980000.000000"
textLength="5593333.000000" font-size="1333333.000000" lengthAdjust="spacingAndGlyphs"
text-anchor="middle" opacity="0">27 mm</text>
</g>
<g class="stroked-text"><desc>27 mm</desc>
<path d="M48922619 20956191
L48875000 20908572
L48827380 20813334
L48827380 20575239
L48875000 20480000
L48922619 20432381
L49017857 20384762
L49113095 20384762
L49255952 20432381
L49827380 21003810
L49827380 20384762
" />
<path d="M48827380 20051429
L48827380 19384762
L49827380 19813334
" />
<path d="M49827380 18241905
L49160714 18241905
" />
<path d="M49255952 18241905
L49208333 18194286
L49160714 18099048
L49160714 17956191
L49208333 17860953
L49303571 17813334
L49827380 17813334
" />
<path d="M49303571 17813334
L49208333 17765715
L49160714 17670477
L49160714 17527620
L49208333 17432381
L49303571 17384762
L49827380 17384762
" />
<path d="M49827380 16908572
L49160714 16908572
" />
<path d="M49255952 16908572
L49208333 16860953
L49160714 16765715
L49160714 16622858
L49208333 16527620
L49303571 16480000
L49827380 16480000
" />
<path d="M49303571 16480000
L49208333 16432381
L49160714 16337143
L49160714 16194286
L49208333 16099048
L49303571 16051429
L49827380 16051429
" />
</g><path d="M43375000 31980000
L48461420 31980000
" />
<path d="M43375000 4980000
L48461420 4980000
" />
<path d="M47875000 31980000
L47875000 4980000
" />
<path d="M47875000 31980000
L47875000 4980000
" />
<path d="M47875000 31980000
L48336749 31092989
" />
<path d="M47875000 31980000
L47413251 31092989
" />
<path d="M47875000 4980000
L47413251 5867011
" />
<path d="M47875000 4980000
L48336749 5867011
" />
<g transform="rotate(-90.000000 87325000.000000 55170000.000000)">
<text x="87325000.000000" y="55670000.000000"
textLength="6891905.000000" font-size="1333333.000000" lengthAdjust="spacingAndGlyphs"
text-anchor="middle" opacity="0">300 mils</text>
</g>
<g class="stroked-text"><desc>300 mils</desc>
<path d="M86777380 58408095
L86777380 57789047
L87158333 58122380
L87158333 57979523
L87205952 57884285
L87253571 57836666
L87348809 57789047
L87586904 57789047
L87682142 57836666
L87729761 57884285
L87777380 57979523
L87777380 58265238
L87729761 58360476
L87682142 58408095
" />
<path d="M86777380 57170000
L86777380 57074761
L86825000 56979523
L86872619 56931904
L86967857 56884285
L87158333 56836666
L87396428 56836666
L87586904 56884285
L87682142 56931904
L87729761 56979523
L87777380 57074761
L87777380 57170000
L87729761 57265238
L87682142 57312857
L87586904 57360476
L87396428 57408095
L87158333 57408095
L86967857 57360476
L86872619 57312857
L86825000 57265238
L86777380 57170000
" />
<path d="M86777380 56217619
L86777380 56122380
L86825000 56027142
L86872619 55979523
L86967857 55931904
L87158333 55884285
L87396428 55884285
L87586904 55931904
L87682142 55979523
L87729761 56027142
L87777380 56122380
L87777380 56217619
L87729761 56312857
L87682142 56360476
L87586904 56408095
L87396428 56455714
L87158333 56455714
L86967857 56408095
L86872619 56360476
L86825000 56312857
L86777380 56217619
" />
<path d="M87777380 54693809
L87110714 54693809
" />
<path d="M87205952 54693809
L87158333 54646190
L87110714 54550952
L87110714 54408095
L87158333 54312857
L87253571 54265238
L87777380 54265238
" />
<path d="M87253571 54265238
L87158333 54217619
L87110714 54122380
L87110714 53979523
L87158333 53884285
L87253571 53836666
L87777380 53836666
" />
<path d="M87777380 53360476
L87110714 53360476
" />
<path d="M86777380 53360476
L86825000 53408095
L86872619 53360476
L86825000 53312857
L86777380 53360476
L86872619 53360476
" />
<path d="M87777380 52741428
L87729761 52836666
L87634523 52884285
L86777380 52884285
" />
<path d="M87729761 52408095
L87777380 52312857
L87777380 52122380
L87729761 52027142
L87634523 51979523
L87586904 51979523
L87491666 52027142
L87444047 52122380
L87444047 52265238
L87396428 52360476
L87301190 52408095
L87253571 52408095
L87158333 52360476
L87110714 52265238
L87110714 52122380
L87158333 52027142
" />
</g><path d="M83875000 58980000
L86261420 58980000
" />
<path d="M83875000 51360000
L86261420 51360000
" />
<path d="M85675000 58980000
L85675000 51360000
" />
<path d="M85675000 58980000
L85675000 51360000
" />
<path d="M85675000 58980000
L86136749 58092989
" />
<path d="M85675000 58980000
L85213251 58092989
" />
<path d="M85675000 51360000
L85213251 52247011
" />
<path d="M85675000 51360000
L86136749 52247011
" />
<g transform="rotate(-45.000000 2575000.000000 48860000.000000)">
<text x="2575000.000000" y="49360000.000000"
textLength="4510952.000000" font-size="1333333.000000" lengthAdjust="spacingAndGlyphs"
text-anchor="middle" opacity="0">1 mm</text>
</g>
<g class="stroked-text"><desc>1 mm</desc>
<path d="M1884730 50190034
L1480669 50594095
" />
<path d="M1682699 50392064
L975592 49684957
L1009264 49853316
L1009264 49988003
L975592 50089018
" />
<path d="M2726523 49348240
L2255119 48876835
" />
<path d="M2322462 48944179
L2322462 48876835
L2356134 48775820
L2457149 48674805
L2558165 48641133
L2659180 48674805
L3029569 49045194
" />
<path d="M2659180 48674805
L2625508 48573790
L2659180 48472774
L2760195 48371759
L2861210 48338087
L2962226 48371759
L3332615 48742148
" />
<path d="M3669332 48405431
L3197928 47934026
" />
<path d="M3265271 48001370
L3265271 47934026
L3298943 47833011
L3399958 47731996
L3500974 47698324
L3601989 47731996
L3972378 48102385
" />
<path d="M3601989 47731996
L3568317 47630981
L3601989 47529965
L3703004 47428950
L3804019 47395278
L3905035 47428950
L4275424 47799339
" />
</g><path d="M1428553 50713553
L1489661 50774661
" />
<path d="M721446 51420660
L782554 51481768
" />
<path d="M637191 50797809
L367893 51067107
" />
<path d="M1075000 50360000
L836571 50435176
" />
<path d="M1075000 50360000
L999824 50598429
" />
<path d="M367893 51067107
L606322 50991931
" />
<path d="M367893 51067107
L443069 50828678
" />
<g transform="rotate(-90.000000 36775000.000000 30230000.000000)">
<text x="36775000.000000" y="30730000.000000"
textLength="5939524.000000" font-size="1333333.000000" lengthAdjust="spacingAndGlyphs"
text-anchor="middle" opacity="0">3.5 mm</text>
</g>
<g class="stroked-text"><desc>3.5 mm</desc>
<path d="M36227381 32991904
L36227381 32372857
L36608334 32706190
L36608334 32563333
L36655953 32468095
L36703572 32420476
L36798810 32372857
L37036905 32372857
L37132143 32420476
L37179762 32468095
L37227381 32563333
L37227381 32849047
L37179762 32944285
L37132143 32991904
" />
<path d="M37132143 31944285
L37179762 31896666
L37227381 31944285
L37179762 31991904
L37132143 31944285
L37227381 31944285
" />
<path d="M36227381 30991904
L36227381 31468095
L36703572 31515714
L36655953 31468095
L36608334 31372857
L36608334 31134761
L36655953 31039523
L36703572 30991904
L36798810 30944285
L37036905 30944285
L37132143 30991904
L37179762 31039523
L37227381 31134761
L37227381 31372857
L37179762 31468095
L37132143 31515714
" />
<path d="M37227381 29753809
L36560715 29753809
" />
<path d="M36655953 29753809
L36608334 29706190
L36560715 29610952
L36560715 29468095
L36608334 29372857
L36703572 29325238
L37227381 29325238
" />
<path d="M36703572 29325238
L36608334 29277619
L36560715 29182380
L36560715 29039523
L36608334 28944285
L36703572 28896666
L37227381 28896666
" />
<path d="M37227381 28420477
L36560715 28420477
" />
<path d="M36655953 28420477
L36608334 28372858
L36560715 28277620
L36560715 28134762
L36608334 28039524
L36703572 27991905
L37227381 27991905
" />
<path d="M36703572 27991905
L36608334 27944286
L36560715 27849048
L36560715 27706191
L36608334 27610953
L36703572 27563334
L37227381 27563334
" />
</g><path d="M42375000 28480000
L37288580 28480000
" />
<path d="M42375000 31980000
L37288580 31980000
" />
<path d="M37875000 28480000
L37875000 31980000
" />
<path d="M37875000 28480000
L37875000 31980000
" />
<path d="M37875000 28480000
L37413251 29367011
" />
<path d="M37875000 28480000
L38336749 29367011
" />
<path d="M37875000 31980000
L38336749 31092989
" />
<path d="M37875000 31980000
L37413251 31092989
" />
<text x="91675000.000000" y="4380000.000000"
textLength="5463333.000000" font-size="1333333.000000" lengthAdjust="spacingAndGlyphs"
text-anchor="middle" opacity="0">12 mm</text>
<g class="stroked-text"><desc>12 mm</desc>
<path d="M89770238 4332381
L89198809 4332381
" />
<path d="M89484523 4332381
L89484523 3332381
L89389285 3475239
L89294047 3570477
L89198809 3618096
" />
<path d="M90151190 3427620
L90198809 3380000
L90294047 3332381
L90532142 3332381
L90627380 3380000
L90675000 3427620
L90722619 3522858
L90722619 3618096
L90675000 3760953
L90103571 4332381
L90722619 4332381
" />
<path d="M91913095 4332381
L91913095 3665715
" />
<path d="M91913095 3760953
L91960714 3713334
L92055952 3665715
L92198809 3665715
L92294047 3713334
L92341666 3808572
L92341666 4332381
" />
<path d="M92341666 3808572
L92389285 3713334
L92484523 3665715
L92627380 3665715
L92722619 3713334
L92770238 3808572
L92770238 4332381
" />
<path d="M93246428 4332381
L93246428 3665715
" />
<path d="M93246428 3760953
L93294047 3713334
L93389285 3665715
L93532142 3665715
L93627380 3713334
L93675000 3808572
L93675000 4332381
" />
<path d="M93675000 3808572
L93722619 3713334
L93817857 3665715
L93960714 3665715
L94055952 3713334
L94103571 3808572
L94103571 4332381
" />
</g><path d="M85675000 14480000
L85675000 4393580
" />
<path d="M97675000 14480000
L97675000 4393580
" />
<path d="M85675000 4980000
L97675000 4980000
" />
<path d="M85675000 4980000
L97675000 4980000
" />
<path d="M85675000 4980000
L86562011 5441749
" />
<path d="M85675000 4980000
L86562011 4518251
" />
<path d="M97675000 4980000
L96787989 4518251
" />
<path d="M97675000 4980000
L96787989 5441749
" />
<text x="42875000.000000" y="63980000.000000"
textLength="5463333.000000" font-size="1333333.000000" lengthAdjust="spacingAndGlyphs"
text-anchor="middle" opacity="0">81 mm</text>
<g class="stroked-text"><desc>81 mm</desc>
<path d="M40589286 63360952
L40494048 63313333
L40446429 63265714
L40398810 63170476
L40398810 63122857
L40446429 63027619
L40494048 62980000
L40589286 62932380
L40779762 62932380
L40875000 62980000
L40922620 63027619
L40970239 63122857
L40970239 63170476
L40922620 63265714
L40875000 63313333
L40779762 63360952
L40589286 63360952
L40494048 63408571
L40446429 63456190
L40398810 63551428
L40398810 63741904
L40446429 63837142
L40494048 63884761
L40589286 63932380
L40779762 63932380
L40875000 63884761
L40922620 63837142
L40970239 63741904
L40970239 63551428
L40922620 63456190
L40875000 63408571
L40779762 63360952
" />
<path d="M41922620 63932380
L41351191 63932380
" />
<path d="M41636905 63932380
L41636905 62932380
L41541667 63075238
L41446429 63170476
L41351191 63218095
" />
<path d="M43113095 63932380
L43113095 63265714
" />
<path d="M43113095 63360952
L43160714 63313333
L43255952 63265714
L43398809 63265714
L43494047 63313333
L43541666 63408571
L43541666 63932380
" />
<path d="M43541666 63408571
L43589285 63313333
L43684523 63265714
L43827380 63265714
L43922619 63313333
L43970238 63408571
L43970238 63932380
" />
<path d="M44446428 63932380
L44446428 63265714
" />
<path d="M44446428 63360952
L44494047 63313333
L44589285 63265714
L44732142 63265714
L44827380 63313333
L44875000 63408571
L44875000 63932380
" />
<path d="M44875000 63408571
L44922619 63313333
L45017857 63265714
L45160714 63265714
L45255952 63313333
L45303571 63408571
L45303571 63932380
" />
</g><path d="M2375000 59480000
L2375000 62566419
" />
<path d="M83375000 59480000
L83375000 62566419
" />
<path d="M2375000 61979999
L83375000 61979999
" />
<path d="M2375000 61979999
L83375000 61979999
" />
<path d="M2375000 61979999
L3501504 62566420
" />
<path d="M2375000 61979999
L3501504 61393578
" />
<path d="M83375000 61979999
L82248496 61393578
" />
<path d="M83375000 61979999
L82248496 62566420
" />
<g transform="rotate(-90.000000 36775000.000000 43410000.000000)">
<text x="36775000.000000" y="43910000.000000"
textLength="6891905.000000" font-size="1333333.000000" lengthAdjust="spacingAndGlyphs"
text-anchor="middle" opacity="0">900 mils</text>
</g>
<g class="stroked-text"><desc>900 mils</desc>
<path d="M37227381 46505238
L37227381 46314761
L37179762 46219523
L37132143 46171904
L36989286 46076666
L36798810 46029047
L36417858 46029047
L36322620 46076666
L36275000 46124285
L36227381 46219523
L36227381 46410000
L36275000 46505238
L36322620 46552857
L36417858 46600476
L36655953 46600476
L36751191 46552857
L36798810 46505238
L36846429 46410000
L36846429 46219523
L36798810 46124285
L36751191 46076666
L36655953 46029047
" />
<path d="M36227381 45410000
L36227381 45314761
L36275000 45219523
L36322620 45171904
L36417858 45124285
L36608334 45076666
L36846429 45076666
L37036905 45124285
L37132143 45171904
L37179762 45219523
L37227381 45314761
L37227381 45410000
L37179762 45505238
L37132143 45552857
L37036905 45600476
L36846429 45648095
L36608334 45648095
L36417858 45600476
L36322620 45552857
L36275000 45505238
L36227381 45410000
" />
<path d="M36227381 44457619
L36227381 44362380
L36275000 44267142
L36322620 44219523
L36417858 44171904
L36608334 44124285
L36846429 44124285
L37036905 44171904
L37132143 44219523
L37179762 44267142
L37227381 44362380
L37227381 44457619
L37179762 44552857
L37132143 44600476
L37036905 44648095
L36846429 44695714
L36608334 44695714
L36417858 44648095
L36322620 44600476
L36275000 44552857
L36227381 44457619
" />
<path d="M37227381 42933809
L36560715 42933809
" />
<path d="M36655953 42933809
L36608334 42886190
L36560715 42790952
L36560715 42648095
L36608334 42552857
L36703572 42505238
L37227381 42505238
" />
<path d="M36703572 42505238
L36608334 42457619
L36560715 42362380
L36560715 42219523
L36608334 42124285
L36703572 42076666
L37227381 42076666
" />
<path d="M37227381 41600476
L36560715 41600476
" />
<path d="M36227381 41600476
L36275000 41648095
L36322620 41600476
L36275000 41552857
L36227381 41600476
L36322620 41600476
" />
<path d="M37227381 40981428
L37179762 41076666
L37084524 41124285
L36227381 41124285
" />
<path d="M37179762 40648095
L37227381 40552857
L37227381 40362380
L37179762 40267142
L37084524 40219523
L37036905 40219523
L36941667 40267142
L36894048 40362380
L36894048 40505238
L36846429 40600476
L36751191 40648095
L36703572 40648095
L36608334 40600476
L36560715 40505238
L36560715 40362380
L36608334 40267142
" />
</g><path d="M42454999 31980000
L37288580 31980000
" />
<path d="M42454999 54840000
L37288580 54840000
" />
<path d="M37875000 31980000
L37875000 54840000
" />
<path d="M37875000 31980000
L37875000 54840000
" />
<path d="M37875000 31980000
L37413251 32867011
" />
<path d="M37875000 31980000
L38336749 32867011
" />
<path d="M37875000 54840000
L38336749 53952989
" />
<path d="M37875000 54840000
L37413251 53952989
" />
<g transform="rotate(-90.000000 79575000.000000 6480000.000000)">
<text x="79575000.000000" y="6980000.000000"
textLength="4510952.000000" font-size="1333333.000000" lengthAdjust="spacingAndGlyphs"
text-anchor="middle" opacity="0">3 mm</text>
</g>
<g class="stroked-text"><desc>3 mm</desc>
<path d="M79027380 8527620
L79027380 7908572
L79408333 8241905
L79408333 8099048
L79455952 8003810
L79503571 7956191
L79598809 7908572
L79836904 7908572
L79932142 7956191
L79979761 8003810
L80027380 8099048
L80027380 8384762
L79979761 8480000
L79932142 8527620
" />
<path d="M80027380 6718096
L79360714 6718096
" />
<path d="M79455952 6718096
L79408333 6670477
L79360714 6575239
L79360714 6432381
L79408333 6337143
L79503571 6289524
L80027380 6289524
" />
<path d="M79503571 6289524
L79408333 6241905
L79360714 6146667
L79360714 6003810
L79408333 5908572
L79503571 5860953
L80027380 5860953
" />
<path d="M80027380 5384762
L79360714 5384762
" />
<path d="M79455952 5384762
L79408333 5337143
L79360714 5241905
L79360714 5099048
L79408333 5003810
L79503571 4956191
L80027380 4956191
" />
<path d="M79503571 4956191
L79408333 4908572
L79360714 4813334
L79360714 4670477
L79408333 4575239
L79503571 4527620
L80027380 4527620
" />
</g><path d="M85175000 4980000
L80088580 4980000
" />
<path d="M85175000 7980000
L80088580 7980000
" />
<path d="M80675000 4980000
L80675000 7980000
" />
<path d="M80675000 4980000
L80675000 7980000
" />
<path d="M80675000 4980000
L80444126 5423505
" />
<path d="M80675000 4980000
L80905874 5423505
" />
<path d="M80675000 7980000
L80905874 7536495
" />
<path d="M80675000 7980000
L80444126 7536495
" />
<g transform="rotate(-90.000000 99575000.000000 9980000.000000)">
<text x="99575000.000000" y="10480000.000000"
textLength="5463333.000000" font-size="1333333.000000" lengthAdjust="spacingAndGlyphs"
text-anchor="middle" opacity="0">10 mm</text>
</g>
<g class="stroked-text"><desc>10 mm</desc>
<path d="M100027380 11884762
L100027380 12456191
" />
<path d="M100027380 12170477
L99027380 12170477
L99170238 12265715
L99265476 12360953
L99313095 12456191
" />
<path d="M99027380 11265715
L99027380 11170477
L99075000 11075239
L99122619 11027620
L99217857 10980000
L99408333 10932381
L99646428 10932381
L99836904 10980000
L99932142 11027620
L99979761 11075239
L100027380 11170477
L100027380 11265715
L99979761 11360953
L99932142 11408572
L99836904 11456191
L99646428 11503810
L99408333 11503810
L99217857 11456191
L99122619 11408572
L99075000 11360953
L99027380 11265715
" />
<path d="M100027380 9741905
L99360714 9741905
" />
<path d="M99455952 9741905
L99408333 9694286
L99360714 9599048
L99360714 9456191
L99408333 9360953
L99503571 9313334
L100027380 9313334
" />
<path d="M99503571 9313334
L99408333 9265715
L99360714 9170477
L99360714 9027620
L99408333 8932381
L99503571 8884762
L100027380 8884762
" />
<path d="M100027380 8408572
L99360714 8408572
" />
<path d="M99455952 8408572
L99408333 8360953
L99360714 8265715
L99360714 8122858
L99408333 8027620
L99503571 7980000
L100027380 7980000
" />
<path d="M99503571 7980000
L99408333 7932381
L99360714 7837143
L99360714 7694286
L99408333 7599048
L99503571 7551429
L100027380 7551429
" />
</g><path d="M86175000 4980000
L101261420 4980000
" />
<path d="M86175000 14980000
L101261420 14980000
" />
<path d="M100675000 4980000
L100675000 14980000
" />
<path d="M100675000 4980000
L100675000 14980000
" />
<path d="M100675000 4980000
L100213251 5867011
" />
<path d="M100675000 4980000
L101136749 5867011
" />
<path d="M100675000 14980000
L101136749 14092989
" />
<path d="M100675000 14980000
L100213251 14092989
" />
<g transform="rotate(-315.000000 3575000.000000 6980000.000000)">
<text x="3575000.000000" y="7480000.000000"
textLength="4510952.000000" font-size="1333333.000000" lengthAdjust="spacingAndGlyphs"
text-anchor="middle" opacity="0">3 mm</text>
</g>
<g class="stroked-text"><desc>3 mm</desc>
<path d="M2514340 5144890
L2952073 5582623
L2446997 5616295
L2548012 5717310
L2581684 5818325
L2581684 5885669
L2548012 5986684
L2379653 6155043
L2278638 6188714
L2211295 6188714
L2110279 6155043
L1908249 5953012
L1874577 5851997
L1874577 5784653
" />
<path d="M3086760 7131523
L3558165 6660119
" />
<path d="M3490821 6727462
L3558165 6727462
L3659180 6761134
L3760195 6862149
L3793867 6963165
L3760195 7064180
L3389806 7434569
" />
<path d="M3760195 7064180
L3861210 7030508
L3962226 7064180
L4063241 7165195
L4096913 7266210
L4063241 7367226
L3692852 7737615
" />
<path d="M4029569 8074332
L4500974 7602928
" />
<path d="M4433630 7670271
L4500974 7670271
L4601989 7703943
L4703004 7804958
L4736676 7905974
L4703004 8006989
L4332615 8377378
" />
<path d="M4703004 8006989
L4804019 7973317
L4905035 8006989
L5006050 8108004
L5039722 8209019
L5006050 8310035
L4635661 8680424
" />
</g><path d="M1307233 5505127
L1368341 5444019
" />
<path d="M3428553 7626447
L3489661 7565339
" />
<path d="M953680 5858680
L3075000 7980000
" />
<path d="M953680 5858680
L3075000 7980000
" />
<path d="M953680 5858680
L1254386 6812397
" />
<path d="M953680 5858680
L1907397 6159386
" />
<path d="M3075000 7980000
L2774294 7026283
" />
<path d="M3075000 7980000
L2121283 7679294
" />
<text x="84175000.000000" y="3380000.000000"
textLength="4510952.000000" font-size="1333333.000000" lengthAdjust="spacingAndGlyphs"
text-anchor="middle" opacity="0">3 mm</text>
<g class="stroked-text"><desc>3 mm</desc>
<path d="M82127380 2332381
L82746428 2332381
L82413095 2713334
L82555952 2713334
L82651190 2760953
L82698809 2808572
L82746428 2903810
L82746428 3141905
L82698809 3237143
L82651190 3284762
L82555952 3332381
L82270238 3332381
L82175000 3284762
L82127380 3237143
" />
<path d="M83936904 3332381
L83936904 2665715
" />
<path d="M83936904 2760953
L83984523 2713334
L84079761 2665715
L84222619 2665715
L84317857 2713334
L84365476 2808572
L84365476 3332381
" />
<path d="M84365476 2808572
L84413095 2713334
L84508333 2665715
L84651190 2665715
L84746428 2713334
L84794047 2808572
L84794047 3332381
" />
<path d="M85270238 3332381
L85270238 2665715
" />
<path d="M85270238 2760953
L85317857 2713334
L85413095 2665715
L85555952 2665715
L85651190 2713334
L85698809 2808572
L85698809 3332381
" />
<path d="M85698809 2808572
L85746428 2713334
L85841666 2665715
L85984523 2665715
L86079761 2713334
L86127380 2808572
L86127380 3332381
" />
</g><path d="M85675000 4480000
L85675000 3393580
" />
<path d="M82675000 4480000
L82675000 3393580
" />
<path d="M85675000 3980000
L82675000 3980000
" />
<path d="M85675000 3980000
L82675000 3980000
" />
<path d="M85675000 3980000
L85231495 3749126
" />
<path d="M85675000 3980000
L85231495 4210874
" />
<path d="M82675000 3980000
L83118505 4210874
" />
<path d="M82675000 3980000
L83118505 3749126
" />
<g transform="rotate(-90.000000 90375000.000000 31980000.000000)">
<text x="90375000.000000" y="32480000.000000"
textLength="5463333.000000" font-size="1333333.000000" lengthAdjust="spacingAndGlyphs"
text-anchor="middle" opacity="0">54 mm</text>
</g>
<g class="stroked-text"><desc>54 mm</desc>
<path d="M89827380 33932380
L89827380 34408571
L90303571 34456190
L90255952 34408571
L90208333 34313333
L90208333 34075238
L90255952 33980000
L90303571 33932380
L90398809 33884761
L90636904 33884761
L90732142 33932380
L90779761 33980000
L90827380 34075238
L90827380 34313333
L90779761 34408571
L90732142 34456190
" />
<path d="M90160714 33027619
L90827380 33027619
" />
<path d="M89779761 33265714
L90494047 33503809
L90494047 32884761
" />
<path d="M90827380 31741904
L90160714 31741904
" />
<path d="M90255952 31741904
L90208333 31694285
L90160714 31599047
L90160714 31456190
L90208333 31360952
L90303571 31313333
L90827380 31313333
" />
<path d="M90303571 31313333
L90208333 31265714
L90160714 31170476
L90160714 31027619
L90208333 30932380
L90303571 30884761
L90827380 30884761
" />
<path d="M90827380 30408571
L90160714 30408571
" />
<path d="M90255952 30408571
L90208333 30360952
L90160714 30265714
L90160714 30122857
L90208333 30027619
L90303571 29980000
L90827380 29980000
" />
<path d="M90303571 29980000
L90208333 29932380
L90160714 29837142
L90160714 29694285
L90208333 29599047
L90303571 29551428
L90827380 29551428
" />
</g><path d="M86175000 4980000
L89461420 4980000
" />
<path d="M86175000 58980000
L89461420 58980000
" />
<path d="M88875000 4980000
L88875000 58980000
" />
<path d="M88875000 4980000
L88875000 58980000
" />
<path d="M88875000 4980000
L88413251 5867011
" />
<path d="M88875000 4980000
L89336749 5867011
" />
<path d="M88875000 58980000
L89336749 58092989
" />
<path d="M88875000 58980000
L88413251 58092989
" />
<g transform="rotate(22.619865 92098077.000000 11464615.000000)">
<text x="92098077.000000" y="11964615.000000"
textLength="5463333.000000" font-size="1333333.000000" lengthAdjust="spacingAndGlyphs"
text-anchor="middle" opacity="0">13 mm</text>
</g>
<g class="stroked-text"><desc>13 mm</desc>
<path d="M90165842 11149597
L89638370 10929817
" />
<path d="M89902106 11039707
L90286721 10116630
L90143864 10211868
L90019322 10263150
L89913095 10270476
" />
<path d="M90858150 10354725
L91429578 10592821
L90975366 10816264
L91107234 10871209
L91176831 10951795
L91202472 11014066
L91209798 11120293
L91118223 11340073
L91037637 11409670
L90975366 11435311
L90869139 11442637
L90605403 11332747
L90535805 11252161
L90510164 11189890
" />
<path d="M92143864 11973773
L92400274 11358388
" />
<path d="M92363644 11446300
L92425915 11420659
L92532142 11413333
L92664011 11468279
L92733608 11548865
L92740934 11655092
L92539468 12138608
" />
<path d="M92740934 11655092
L92821520 11585495
L92927747 11578169
L93059615 11633114
L93129212 11713700
L93136538 11819927
L92935073 12303443
" />
<path d="M93374633 12486594
L93631044 11871209
" />
<path d="M93594413 11959121
L93656685 11933480
L93762912 11926154
L93894780 11981099
L93964377 12061685
L93971703 12167912
L93770238 12651429
" />
<path d="M93971703 12167912
L94052289 12098315
L94158516 12090989
L94290384 12145934
L94359981 12226520
L94367307 12332747
L94165842 12816264
" />
</g><path d="M97482692 15441538
L97449454 15521310
" />
<path d="M85482692 10441538
L85449454 10521310
" />
<path d="M97675000 14980000
L85675000 9980000
" />
<path d="M97675000 14980000
L85675000 9980000
" />
<path d="M97675000 14980000
L97033816 14212612
" />
<path d="M97675000 14980000
L96678625 15065071
" />
<path d="M85675000 9980000
L86316184 10747388
" />
<path d="M85675000 9980000
L86671375 9894929
" />
<text x="48971000.000000" y="58642000.000000"
textLength="6891905.000000" font-size="1333333.000000" lengthAdjust="spacingAndGlyphs"
text-anchor="middle" opacity="0">100 mils</text>
<g class="stroked-text"><desc>100 mils</desc>
<path d="M46351952 58594380
L45780523 58594380
" />
<path d="M46066238 58594380
L46066238 57594380
L45971000 57737238
L45875761 57832476
L45780523 57880095
" />
<path d="M46971000 57594380
L47066238 57594380
L47161476 57642000
L47209095 57689619
L47256714 57784857
L47304333 57975333
L47304333 58213428
L47256714 58403904
L47209095 58499142
L47161476 58546761
L47066238 58594380
L46971000 58594380
L46875761 58546761
L46828142 58499142
L46780523 58403904
L46732904 58213428
L46732904 57975333
L46780523 57784857
L46828142 57689619
L46875761 57642000
L46971000 57594380
" />
<path d="M47923380 57594380
L48018619 57594380
L48113857 57642000
L48161476 57689619
L48209095 57784857
L48256714 57975333
L48256714 58213428
L48209095 58403904
L48161476 58499142
L48113857 58546761
L48018619 58594380
L47923380 58594380
L47828142 58546761
L47780523 58499142
L47732904 58403904
L47685285 58213428
L47685285 57975333
L47732904 57784857
L47780523 57689619
L47828142 57642000
L47923380 57594380
" />
<path d="M49447190 58594380
L49447190 57927714
" />
<path d="M49447190 58022952
L49494809 57975333
L49590047 57927714
L49732904 57927714
L49828142 57975333
L49875761 58070571
L49875761 58594380
" />
<path d="M49875761 58070571
L49923380 57975333
L50018619 57927714
L50161476 57927714
L50256714 57975333
L50304333 58070571
L50304333 58594380
" />
<path d="M50780523 58594380
L50780523 57927714
" />
<path d="M50780523 57594380
L50732904 57642000
L50780523 57689619
L50828142 57642000
L50780523 57594380
L50780523 57689619
" />
<path d="M51399571 58594380
L51304333 58546761
L51256714 58451523
L51256714 57594380
" />
<path d="M51732904 58546761
L51828142 58594380
L52018619 58594380
L52113857 58546761
L52161476 58451523
L52161476 58403904
L52113857 58308666
L52018619 58261047
L51875761 58261047
L51780523 58213428
L51732904 58118190
L51732904 58070571
L51780523 57975333
L51875761 57927714
L52018619 57927714
L52113857 57975333
" />
</g><path d="M42875000 55340000
L42875000 58728420
" />
<path d="M45415000 55340000
L45415000 58728420
" />
<path d="M42875000 58142000
L45040048 58142000
" />
<path d="M42875000 58142000
L43762011 58603749
" />
<path d="M42875000 58142000
L43762011 57680251
" />
<path d="M45415000 58142000
L44527989 57680251
" />
<path d="M45415000 58142000
L44527989 58603749
" />
<text x="42875000.000000" y="1380000.000000"
textLength="6891905.000000" font-size="1333333.000000" lengthAdjust="spacingAndGlyphs"
text-anchor="middle" opacity="0">85.6 mm</text>
<g class="stroked-text"><desc>85.6 mm</desc>
<path d="M39875001 760953
L39779762 713334
L39732143 665715
L39684524 570477
L39684524 522858
L39732143 427620
L39779762 380000
L39875001 332381
L40065477 332381
L40160715 380000
L40208334 427620
L40255953 522858
L40255953 570477
L40208334 665715
L40160715 713334
L40065477 760953
L39875001 760953
L39779762 808572
L39732143 856191
L39684524 951429
L39684524 1141905
L39732143 1237143
L39779762 1284762
L39875001 1332381
L40065477 1332381
L40160715 1284762
L40208334 1237143
L40255953 1141905
L40255953 951429
L40208334 856191
L40160715 808572
L40065477 760953
" />
<path d="M41160715 332381
L40684524 332381
L40636905 808572
L40684524 760953
L40779762 713334
L41017858 713334
L41113096 760953
L41160715 808572
L41208334 903810
L41208334 1141905
L41160715 1237143
L41113096 1284762
L41017858 1332381
L40779762 1332381
L40684524 1284762
L40636905 1237143
" />
<path d="M41636905 1237143
L41684524 1284762
L41636905 1332381
L41589286 1284762
L41636905 1237143
L41636905 1332381
" />
<path d="M42541667 332381
L42351191 332381
L42255953 380000
L42208334 427620
L42113096 570477
L42065477 760953
L42065477 1141905
L42113096 1237143
L42160715 1284762
L42255953 1332381
L42446429 1332381
L42541667 1284762
L42589286 1237143
L42636905 1141905
L42636905 903810
L42589286 808572
L42541667 760953
L42446429 713334
L42255953 713334
L42160715 760953
L42113096 808572
L42065477 903810
" />
<path d="M43827380 1332381
L43827380 665715
" />
<path d="M43827380 760953
L43875000 713334
L43970238 665715
L44113095 665715
L44208333 713334
L44255952 808572
L44255952 1332381
" />
<path d="M44255952 808572
L44303571 713334
L44398809 665715
L44541666 665715
L44636904 713334
L44684523 808572
L44684523 1332381
" />
<path d="M45160714 1332381
L45160714 665715
" />
<path d="M45160714 760953
L45208333 713334
L45303571 665715
L45446428 665715
L45541666 713334
L45589285 808572
L45589285 1332381
" />
<path d="M45589285 808572
L45636904 713334
L45732142 665715
L45875000 665715
L45970238 713334
L46017857 808572
L46017857 1332381
" />
</g><path d="M75000 4480000
L75000 1393580
" />
<path d="M85675000 4480000
L85675000 1393580
" />
<path d="M75000 1980000
L85675000 1980000
" />
<path d="M75000 1980000
L85675000 1980000
" />
<path d="M75000 1980000
L962011 2441749
" />
<path d="M75000 1980000
L962011 1518251
" />
<path d="M85675000 1980000
L84787989 1518251
" />
<path d="M85675000 1980000
L84787989 2441749
" />
</g>
<g style="fill:#C2C2C2; fill-opacity:0.0; 
stroke:#C2C2C2; stroke-width:150000.000000; stroke-opacity:1; 
stroke-linecap:round; stroke-linejoin:round;">
<text x="45415000.000000" y="46330000.000000"
textLength="4510952.000000" font-size="1333333.000000" lengthAdjust="spacingAndGlyphs"
text-anchor="middle" opacity="0">2 mm</text>
<g class="stroked-text"><desc>2 mm</desc>
<path d="M43415000 45377619
L43462619 45330000
L43557857 45282380
L43795952 45282380
L43891190 45330000
L43938809 45377619
L43986428 45472857
L43986428 45568095
L43938809 45710952
L43367380 46282380
L43986428 46282380
" />
<path d="M45176904 46282380
L45176904 45615714
" />
<path d="M45176904 45710952
L45224523 45663333
L45319761 45615714
L45462619 45615714
L45557857 45663333
L45605476 45758571
L45605476 46282380
" />
<path d="M45605476 45758571
L45653095 45663333
L45748333 45615714
L45891190 45615714
L45986428 45663333
L46034047 45758571
L46034047 46282380
" />
<path d="M46510238 46282380
L46510238 45615714
" />
<path d="M46510238 45710952
L46557857 45663333
L46653095 45615714
L46795952 45615714
L46891190 45663333
L46938809 45758571
L46938809 46282380
" />
<path d="M46938809 45758571
L46986428 45663333
L47081666 45615714
L47224523 45615714
L47319761 45663333
L47367380 45758571
L47367380 46282380
" />
</g><path d="M44415000 50860000
L44415000 46393580
" />
<path d="M46415000 50860000
L46415000 46393580
" />
<path d="M44415000 46980000
L46415000 46980000
" />
<path d="M44415000 46980000
L46415000 46980000
" />
<path d="M44415000 46980000
L45541504 47566421
" />
<path d="M44415000 46980000
L45541504 46393579
" />
<path d="M46415000 46980000
L45288496 46393579
" />
<path d="M46415000 46980000
L45288496 47566421
" />
</g>
<g style="fill:#C2C2C2; fill-opacity:0.0; 
stroke:#C2C2C2; stroke-width:100000.000000; stroke-opacity:1; 
stroke-linecap:round; stroke-linejoin:round;">
<text x="6675000.000000" y="57480000.000000"
textLength="6004524.000000" font-size="1333333.000000" lengthAdjust="spacingAndGlyphs"
text-anchor="middle" opacity="0">0.5 mm</text>
<g class="stroked-text"><desc>0.5 mm</desc>
<path d="M4198810 56432380
L4294048 56432380
L4389286 56480000
L4436905 56527619
L4484524 56622857
L4532143 56813333
L4532143 57051428
L4484524 57241904
L4436905 57337142
L4389286 57384761
L4294048 57432380
L4198810 57432380
L4103572 57384761
L4055953 57337142
L4008334 57241904
L3960715 57051428
L3960715 56813333
L4008334 56622857
L4055953 56527619
L4103572 56480000
L4198810 56432380
" />
<path d="M4960715 57337142
L5008334 57384761
L4960715 57432380
L4913096 57384761
L4960715 57337142
L4960715 57432380
" />
<path d="M5913096 56432380
L5436905 56432380
L5389286 56908571
L5436905 56860952
L5532143 56813333
L5770239 56813333
L5865477 56860952
L5913096 56908571
L5960715 57003809
L5960715 57241904
L5913096 57337142
L5865477 57384761
L5770239 57432380
L5532143 57432380
L5436905 57384761
L5389286 57337142
" />
<path d="M7151191 57432380
L7151191 56765714
" />
<path d="M7151191 56860952
L7198810 56813333
L7294048 56765714
L7436905 56765714
L7532143 56813333
L7579762 56908571
L7579762 57432380
" />
<path d="M7579762 56908571
L7627381 56813333
L7722620 56765714
L7865477 56765714
L7960715 56813333
L8008334 56908571
L8008334 57432380
" />
<path d="M8484524 57432380
L8484524 56765714
" />
<path d="M8484524 56860952
L8532143 56813333
L8627381 56765714
L8770239 56765714
L8865477 56813333
L8913096 56908571
L8913096 57432380
" />
<path d="M8913096 56908571
L8960715 56813333
L9055953 56765714
L9198810 56765714
L9294048 56813333
L9341667 56908571
L9341667 57432380
" />
</g><path d="M2375000 57980000
L2375000 56393580
" />
<path d="M2875000 56393580
L2875000 58480000
" />
<path d="M2375000 56980000
L2875000 56980000
" />
<path d="M2375000 56980000
L2875000 56980000
" />
<path d="M2375000 56980000
L2463701 57026175
" />
<path d="M2375000 56980000
L2463701 56933825
" />
<path d="M2875000 56980000
L2786299 56933825
" />
<path d="M2875000 56980000
L2786299 57026175
" />
<g >
</g>
<g >
</g>
<g >
</g>
<g >
</g>
<g >
</g>
<g >
</g>
<g >
</g>
<g >
</g>
<g >
</g>
<g >
</g>
<g >
</g>
<g >
</g>
<g >
</g>
<g >
</g>
</g>
<g style="fill:#000000; fill-opacity:0.0; 
stroke:#000000; stroke-width:100000.000000; stroke-opacity:1; 
stroke-linecap:round; stroke-linejoin:round;">
</g>
<g style="fill:#D0D2CD; fill-opacity:0.0; 
stroke:#D0D2CD; stroke-width:100000.000000; stroke-opacity:1; 
stroke-linecap:round; stroke-linejoin:round;">
</g>
<g style="fill:#D0D2CD; fill-opacity:0.0; 
stroke:#D0D2CD; stroke-width:150000.000000; stroke-opacity:1; 
stroke-linecap:round; stroke-linejoin:round;">
<path d="M44415000 58480000
L43915000 58980000
" />
<path d="M84675000.000000 51360000.000000 A1000000.000000 1000000.000000 0.0 0 0 85675000.000000 50360000.000000" />
<path d="M2875000 58980000
L43915000 58980000
" />
<path d="M83375000 51360000
L83375000 58480000
" />
<path d="M83375000 51360000
L84675000 51360000
" />
<path d="M2375000 51360000
L2375000 58480000
" />
<path d="M85675000.000000 7980000.000000 A3000000.000000 3000000.000000 0.0 0 0 82675000.000000 4980000.000000" />
<path d="M2375000 51360000
L1075000 51360000
" />
<path d="M75000 50360000
L75000 19980000
" />
<path d="M46415000 58480000
L46915000 58980000
" />
<path d="M46415000 58480000
L46415000 51360000
" />
<path d="M46915000 58980000
L82875000 58980000
" />
<path d="M85674999.795232 9979999.914763 A13010801.000000 13010801.000000 0.0 0 0 85674999.795232 19980000.085237" />
<path d="M44415000 51360000
L46415000 51360000
" />
<path d="M75000 7980000
L75000 9980000
" />
<path d="M2375000 58480000
L2875000 58980000
" />
<path d="M3075000.000000 4980000.000000 A3000001.000000 3000001.000000 0.0 0 0 75000.000000 7980000.000000" />
<path d="M3075000 4980000
L82675000 4980000
" />
<path d="M75000.000001 50360000.000000 A999999.000000 999999.000000 0.0 0 0 1075000.000000 51360000.000000" />
<path d="M85675000 7980000
L85675000 9980000
" />
<path d="M82875000 58980000
L83375000 58480000
" />
<path d="M74999.988894 19979999.995377 A13010822.000000 13010822.000000 0.0 0 0 74999.988894 9980000.004623" />
<path d="M44415000 58480000
L44415000 51360000
" />
<path d="M85675000 19980000
L85675000 50360000
" />
<g >
</g>
<g >
</g>
<g >
</g>
<g >
</g>
<g >
</g>
<g >
</g>
<g >
</g>
<g >
</g>
<g >
</g>
<g >
</g>
<g >
</g>
<g >
</g>
<g >
</g>
<g >
</g>
</g> 
</svg>
